<?xml version="1.0" encoding="iso-8859-1"?>
<svg xmlns="http://www.w3.org/2000/svg" viewBox="0 0 24 24" width="24" height="24">
  <g>
    <path
       fill-rule="evenodd"
       d="M19.75 17.5a1.75 1.75 0 100 3.5 1.75 1.75 0 000-3.5zm-3.25 1.75a3.25 3.25 0 116.5 0 3.25 3.25 0 01-6.5 0z"
       />
    <path
       fill-rule="evenodd"
       d="m 13.905,1.72 c 0.292453,0.2928175 0.292453,0.7671825 0,1.06 L 12.685,4 h 4.065 c 2.071068,0 3.75,1.6789322 3.75,3.75 v 8.75 c 0,1 -1.5,1 -1.5,0 V 7.75 C 19,6.5073593 17.992641,5.5 16.75,5.5 h -4.064 l 1.22,1.22 c 0.682417,0.7072168 -0.354427,1.7430839 -1.061,1.06 l -2.5,-2.5 c -0.292453,-0.2928175 -0.292453,-0.7671825 0,-1.06 l 2.5,-2.5 c 0.292818,-0.2924534 0.767182,-0.2924534 1.06,0 z"
       />
  </g>
  <g opacity="0.45">
    <path
       fill-rule="evenodd"
       d="m 4.2518781,3.0135865 a 1.7500001,1.7500001 0 1 0 0,3.5 1.7500001,1.7500001 0 0 0 0,-3.5 z m -3.25,1.75 a 3.25,3.25 0 1 1 6.5,0 3.25,3.25 0 0 1 -6.5,0 z"
       />
    <path
       fill-rule="evenodd"
       d="m 10.095,22.28 a 0.75,0.75 0 0 1 0,-1.06 L 11.315,20 H 7.25 A 3.75,3.75 0 0 1 3.5,16.25 V 7.5 a 0.75,0.75 0 0 1 1.5,0 v 8.75 a 2.25,2.25 0 0 0 2.25,2.25 h 4.064 l -1.22,-1.22 a 0.75,0.75 0 1 1 1.061,-1.06 l 2.5,2.5 a 0.75,0.75 0 0 1 0,1.06 l -2.5,2.5 a 0.75,0.75 0 0 1 -1.06,0 z"
       />
  </g>
</svg>
